<svg xmlns="http://www.w3.org/2000/svg" viewBox="0 0 468.06 256.46"><defs><style>.cls-1{fill:#a3bbad;}.cls-2{fill:#357266;}</style></defs><g id="Layer_2" data-name="Layer 2"><g id="Layer_4" data-name="Layer 4"><path class="cls-1" d="M407,211.46a13.15,13.15,0,0,1,11.93,18.63c-6.73,14.83-22,26.37-45.68,26.37s-39-11.54-45.68-26.37a13.15,13.15,0,0,1,11.93-18.63Z"/><path class="cls-1" d="M128.13,211.46a13.15,13.15,0,0,1,11.93,18.63c-6.73,14.83-22,26.37-45.68,26.37S55.43,244.92,48.7,230.09a13.15,13.15,0,0,1,11.93-18.63Z"/><path class="cls-2" d="M421.93,191.91H46.14A46.18,46.18,0,0,1,0,145.8V115.08A46.11,46.11,0,0,1,46.13,68.94H78.79a6.11,6.11,0,0,0,5.1-2.73L114.3,20.56A46,46,0,0,1,152.69,0H279.13a46.24,46.24,0,0,1,34,14.93l47.75,52a6.16,6.16,0,0,0,4.52,2h56.55a46.17,46.17,0,0,1,46.12,46.12v30.72a46.13,46.13,0,0,1-46.13,46.13Zm-375.8-83A6.11,6.11,0,0,0,40,115.07v30.72a6.13,6.13,0,0,0,6.13,6.12H421.93a6.13,6.13,0,0,0,6.13-6.13V115.06a6.13,6.13,0,0,0-6.12-6.12H365.38A46.24,46.24,0,0,1,331.4,94L283.64,42a6.12,6.12,0,0,0-4.51-2H152.69a6.11,6.11,0,0,0-5.1,2.73L117.18,88.38a46,46,0,0,1-38.39,20.56Z"/><path class="cls-1" d="M256.38,129.63,243.8,160.69a5,5,0,0,1-4.59,3.1H224.65a5,5,0,0,1-4.59-6.82L246,93.1a5,5,0,0,0-4.58-6.82h-2.55q-12.54,0-12.54-8.72A11.43,11.43,0,0,1,230.78,68q4.41-3.41,12.4-3.4H277.8q17.44,0,25.76,6.58t8.31,20.31A33.83,33.83,0,0,1,299,118.81q-9.36,7.72-28.89,7.72H261A5,5,0,0,0,256.38,129.63ZM269.22,98a5,5,0,0,0,4.58,6.82h0q14.54,0,14.54-11.81,0-6.74-8.27-6.73h-2.75a5,5,0,0,0-4.59,3.09Z"/><path class="cls-1" d="M163.15,129.45l-12.58,31.07a5,5,0,0,1-4.59,3.09H131.42a5,5,0,0,1-4.59-6.82l26-63.87a4.94,4.94,0,0,0-4.58-6.81h-2.55q-12.54,0-12.54-8.72a11.42,11.42,0,0,1,4.41-9.59Q142,64.4,150,64.39h34.62q17.44,0,25.76,6.59t8.31,20.31a33.85,33.85,0,0,1-12.9,27.35q-9.36,7.71-28.89,7.72h-9.11A4.94,4.94,0,0,0,163.15,129.45ZM176,97.83a4.94,4.94,0,0,0,4.58,6.81h0q14.53,0,14.54-11.81,0-6.72-8.27-6.72h-2.76a5,5,0,0,0-4.58,3.08Z"/></g></g></svg>