<svg xmlns="http://www.w3.org/2000/svg" viewBox="0 0 529.86 698.71"><defs><style>.cls-1{fill:#ed1c24;stroke-width:10px;}.cls-1,.cls-2{stroke:#000;}.cls-1,.cls-2,.cls-3{stroke-miterlimit:10;}.cls-2,.cls-3{fill:none;}.cls-2{stroke-width:80px;}.cls-3{stroke:#ed1c24;stroke-width:60px;}</style></defs><g id="Layer_2" data-name="Layer 2"><g id="Layer_8" data-name="Layer 8"><path class="cls-1" d="M239.9,329.59l-62.75,155A24.71,24.71,0,0,1,154.25,500H81.59a24.7,24.7,0,0,1-22.88-34L188.34,147.35a24.7,24.7,0,0,0-22.88-34H152.77q-62.57,0-62.56-43.52,0-30.81,22-47.82T174.07,5H346.78q87,0,128.52,32.86t41.48,101.32q0,83.41-64.37,136.45-46.7,38.53-144.16,38.53H262.8A24.7,24.7,0,0,0,239.9,329.59ZM304,171.81a24.7,24.7,0,0,0,22.88,34h0q72.53,0,72.53-58.93,0-33.55-41.25-33.55H344.36a24.72,24.72,0,0,0-22.88,15.39Z"/><path class="cls-2" d="M463.87,553.91c49.75-26.34,49.88-26-200,100-233.11-117.55-252-127-200-100"/><path class="cls-3" d="M463.87,553.91c49.75-26.34,49.88-26-200,100-233.11-117.55-252-127-200-100"/></g></g></svg>